<svg width="207" height="206" fill="none" xmlns="http://www.w3.org/2000/svg"><circle cx="103.461" cy="103" r="103" fill="#656CFF"/><circle cx="103.461" cy="103" r="103" fill="url(#paint0_linear_203_620)" fill-opacity=".5"/><path d="M204.461 103a1.97 1.97 0 001.981-2 102.994 102.994 0 00-17.34-55.224A102.994 102.994 0 0083.367 1.98a103 103 0 00-51.31 26.788 1.97 1.97 0 00-.014 2.815l70.832 70.832c.375.375.884.586 1.415.586h100.171z" fill="#646981"/><path d="M204.461 103a1.97 1.97 0 001.981-2 102.994 102.994 0 00-17.34-55.224A102.994 102.994 0 0083.367 1.98a103 103 0 00-51.31 26.788 1.97 1.97 0 00-.014 2.815l70.832 70.832c.375.375.884.586 1.415.586h100.171z" fill="url(#paint1_linear_203_620)"/><path d="M120.242 60h-9.98v-2.1l3.584-3.623c1.061-1.087 1.754-1.839 2.08-2.255.325-.424.56-.814.703-1.172a2.98 2.98 0 00.215-1.114c0-.573-.16-.999-.479-1.279-.312-.28-.732-.42-1.259-.42-.554 0-1.091.127-1.612.381-.521.254-1.064.615-1.631 1.084l-1.64-1.943c.703-.6 1.286-1.023 1.748-1.27a6.266 6.266 0 011.514-.566 7.563 7.563 0 011.835-.205c.892 0 1.68.162 2.364.488.683.325 1.214.781 1.592 1.367.377.586.566 1.257.566 2.012 0 .657-.117 1.276-.352 1.855-.227.573-.586 1.162-1.074 1.768-.482.605-1.334 1.468-2.558 2.588l-1.836 1.728v.137h6.22V60zm7.141-9.121c1.38 0 2.477.387 3.291 1.162.82.775 1.23 1.836 1.23 3.184 0 1.595-.491 2.822-1.474 3.681-.983.86-2.389 1.29-4.219 1.29-1.588 0-2.871-.258-3.848-.772v-2.608a8.17 8.17 0 001.797.674 8.1 8.1 0 001.944.254c1.842 0 2.763-.755 2.763-2.266 0-1.438-.953-2.158-2.861-2.158a6.8 6.8 0 00-1.143.108 7.883 7.883 0 00-1.015.215l-1.201-.645.537-7.275h7.744v2.558h-5.098l-.263 2.803.341-.068c.397-.091.889-.137 1.475-.137zm9.006-.879c0 .827.071 1.445.215 1.855.149.404.387.606.713.606.625 0 .937-.82.937-2.461 0-1.628-.312-2.441-.937-2.441-.326 0-.564.201-.713.605-.144.397-.215 1.01-.215 1.836zm4.326-.02c0 1.498-.29 2.624-.869 3.38-.58.748-1.429 1.122-2.549 1.122-1.074 0-1.904-.384-2.49-1.152-.586-.775-.879-1.891-.879-3.35 0-2.975 1.123-4.462 3.369-4.462 1.1 0 1.943.387 2.529 1.162.593.768.889 1.868.889 3.3zm6.719-4.257L139.514 60h-2.344l7.92-14.277h2.344zm-1.045 9.98c0 .827.071 1.445.215 1.856.149.403.387.605.713.605.625 0 .937-.82.937-2.46 0-1.629-.312-2.442-.937-2.442-.326 0-.564.202-.713.605-.144.397-.215 1.01-.215 1.836zm4.326-.02c0 1.492-.29 2.614-.869 3.37-.58.748-1.429 1.123-2.549 1.123-1.074 0-1.904-.384-2.49-1.153-.586-.774-.879-1.888-.879-3.34 0-2.975 1.123-4.462 3.369-4.462 1.1 0 1.943.387 2.529 1.162.593.768.889 1.868.889 3.3zM65.678 152l5.361-11.719H64v-2.539h10.243v1.895L68.842 152h-3.164zm15.705-9.121c1.38 0 2.477.387 3.291 1.162.82.775 1.23 1.836 1.23 3.184 0 1.595-.491 2.822-1.474 3.681-.983.86-2.39 1.289-4.219 1.289-1.588 0-2.871-.257-3.848-.771v-2.608a8.128 8.128 0 001.797.674c.684.17 1.332.254 1.944.254 1.842 0 2.763-.755 2.763-2.265 0-1.439-.954-2.159-2.861-2.159-.345 0-.726.036-1.143.108a7.719 7.719 0 00-1.015.215l-1.201-.645.537-7.275h7.744v2.558H79.83l-.263 2.803.341-.068c.397-.092.889-.137 1.475-.137zm9.006-.879c0 .827.071 1.445.215 1.855.15.404.387.606.713.606.625 0 .937-.82.937-2.461 0-1.628-.313-2.441-.938-2.441-.325 0-.563.201-.712.605-.144.397-.215 1.009-.215 1.836zm4.326-.02c0 1.498-.29 2.624-.87 3.379-.579.749-1.428 1.123-2.548 1.123-1.074 0-1.904-.384-2.49-1.152-.586-.775-.88-1.891-.88-3.35 0-2.975 1.124-4.462 3.37-4.462 1.1 0 1.943.387 2.53 1.162.592.768.888 1.868.888 3.3zm6.719-4.257L93.514 152H91.17l7.92-14.277h2.344zm-1.045 9.98c0 .827.071 1.445.215 1.856.149.403.387.605.713.605.625 0 .937-.82.937-2.461 0-1.627-.312-2.441-.937-2.441-.326 0-.564.202-.713.605-.144.397-.215 1.009-.215 1.836zm4.326-.019c0 1.49-.29 2.614-.869 3.369-.58.748-1.429 1.123-2.549 1.123-1.074 0-1.904-.384-2.49-1.153-.586-.774-.88-1.888-.88-3.339 0-2.976 1.124-4.463 3.37-4.463 1.1 0 1.943.387 2.529 1.162.593.768.889 1.868.889 3.301z" fill="#fff"/><defs><linearGradient id="paint0_linear_203_620" x1="-35.039" y1="20.5" x2="212.961" y2="188" gradientUnits="userSpaceOnUse"><stop stop-color="#B61AFF"/><stop offset="1" stop-color="#001AFF"/></linearGradient><linearGradient id="paint1_linear_203_620" x1="103.461" y1="0" x2="184.961" y2="103" gradientUnits="userSpaceOnUse"><stop stop-color="#43E9FF"/><stop offset="1" stop-color="#00ABAB"/></linearGradient></defs></svg>