<svg width="13" height="16" viewBox="0 0 13 16" fill="none" xmlns="http://www.w3.org/2000/svg">
<path d="M6.89512 7.97031C8.96278 7.97031 10.6388 6.29423 10.6388 4.22667C10.6388 2.15921 8.96278 0.483032 6.89512 0.483032C4.82766 0.483032 3.15149 2.15921 3.15149 4.22667C3.15308 6.29354 4.82826 7.96872 6.89512 7.97031V7.97031ZM6.89512 1.11753C8.61231 1.11753 10.0043 2.50948 10.0043 4.22667C10.0043 5.94386 8.61231 7.33581 6.89512 7.33581C5.17813 7.33581 3.78599 5.94386 3.78599 4.22667C3.78887 2.51077 5.17923 1.12031 6.89512 1.11753Z" fill="white"/>
<path d="M6.89496 8.90625C5.26755 8.90625 3.75414 9.53757 2.63113 10.6861C1.49213 11.8504 0.867065 13.4398 0.867065 15.1658C0.867562 15.3408 1.00938 15.4826 1.18436 15.483H12.6057C12.7807 15.4826 12.9224 15.3408 12.9229 15.1658C12.9229 13.4431 12.2979 11.8504 11.159 10.6893C10.0359 9.54075 8.52258 8.90625 6.89496 8.90625V8.90625ZM1.50802 14.8485C1.57784 13.4146 2.13299 12.1043 3.08161 11.1334C4.08416 10.1086 5.43886 9.54403 6.89188 9.54403C8.34491 9.54403 9.69961 10.1086 10.7021 11.1334C11.6539 12.1043 12.2059 13.4146 12.2757 14.8485H1.50802Z" fill="white"/>
</svg>
