<svg width="13" height="17" viewBox="0 0 13 17" fill="none" xmlns="http://www.w3.org/2000/svg">
<path d="M6.5 0C3.20452 0 0.523438 2.68109 0.523438 5.97656C0.523438 7.09 0.831861 8.1766 1.41557 9.1193L6.1598 16.7646C6.25068 16.911 6.41078 17 6.58297 17C6.5843 17 6.5856 17 6.58693 17C6.76061 16.9986 6.92105 16.9069 7.01027 16.7579L11.6336 9.03855C12.1851 8.11577 12.4766 7.05696 12.4766 5.97656C12.4766 2.68109 9.79548 0 6.5 0ZM10.7788 8.52716L6.57544 15.5452L2.26219 8.5945C1.77632 7.80984 1.51289 6.90459 1.51289 5.97656C1.51289 3.23033 3.75377 0.989453 6.5 0.989453C9.24623 0.989453 11.4838 3.23033 11.4838 5.97656C11.4838 6.87706 11.2377 7.75917 10.7788 8.52716Z" fill="white" fill-opacity="0.7"/>
<path d="M6.5 2.98828C4.85226 2.98828 3.51172 4.32882 3.51172 5.97656C3.51172 7.61378 4.83045 8.96484 6.5 8.96484C8.19014 8.96484 9.48828 7.59578 9.48828 5.97656C9.48828 4.32882 8.14774 2.98828 6.5 2.98828ZM6.5 7.97539C5.39576 7.97539 4.50117 7.07781 4.50117 5.97656C4.50117 4.87807 5.40151 3.97773 6.5 3.97773C7.59849 3.97773 8.49551 4.87807 8.49551 5.97656C8.49551 7.06174 7.62173 7.97539 6.5 7.97539Z" fill="white" fill-opacity="0.7"/>
</svg>
